<?xml version="1.0" encoding="UTF-8"?>
<svg width="104.42mm" height="104.42mm" version="1.1" viewBox="0 0 370.00001 370.00001" xmlns="http://www.w3.org/2000/svg">
 <defs>
  <filter id="a" x="-.01261" y="-.011446" width="1.0252" height="1.0229" color-interpolation-filters="sRGB">
   <feGaussianBlur stdDeviation="1.6880403"/>
  </filter>
 </defs>
 <g transform="translate(-41.429 -108.08)">
  <rect x="41.429" y="108.08" width="370" height="370" color="#000000"/>
 </g>
 <g transform="translate(-41.429 -108.08)">
  <path d="m245.71 114.84c-1.1642 5.5351 8.1554 3.8481 11.654 5.8778 23.27 6.3648 47.36 12.29 67.783 25.646 2.2416 1.33 6.0623 5.5788 1.3379 6.5566-16.385 4.1804-33.463 1.0973-50.058-0.1943-12.324-1.0426-24.008-9.6718-36.673-5.4131-11 3.2077-20.703 12.653-20.764 24.678-0.90101 3.2484 0.85648 7.5224-0.41992 10.246-2.9181 1.8338-4.3214-0.31313-4.3281-3.1484-3.2811-14.188-14.044-27.975-29.434-29.27-16.615-2.9138-34.179 5.644-42.117 20.523-9.5393 12.095-20.556 24.103-35.027 30.078-4.4519 2.5323-8.3295-1.5313-8-5.8633 0.07259-13.531 11.644-22.962 20.088-32.049 15.076-15.048 31.891-28.945 44.684-45.927-1.6637-5.4162-8.0718 1.8464-11.487 2.9628-33.91 20.364-63.824 47.472-87.66 79-5.6587 7.6308-8.3407 19.954 0.02247 26.778 8.8061 8.5512 22.094 11.317 33.863 8.8144-3.3604 7.9125-7.7702 16.673-17.021 18.707-5.7528 0.97139-10.772 3.6324-15.021 7.5859-6.9592 3.0749-3.7499 12.305 1.3711 15.494 9.8258 8.0834 22.994 3.8528 34.469 5.8457 11.437 0.64205 20.091-8.7549 28.779-14.819 9.6635-8.4797 20.765-15.463 32.12-21.281-6.4491 12.868-7.3444 29.188 0.31055 41.963 9.8476 18.094 24.564 33.669 30.064 53.98 5.7566 16.604 8.2417 34.121 11.467 51.052 6.1389 2.0697 2.1924-8.9386 2.7769-12.823-1.2043-25.706-4.6034-52.627-19.867-74.197-7.7884-11.59-17.324-23.148-19.778-37.246-1.4108-14.33 7.0727-27.239 9.9746-40.656-4.0123-2.39-8.9578 2.6829-11.27 6.0938-1.8216 3.2775-2.1452 7.0932-3.291 10.613-2.2743-4.0022-8.4627-0.26094-12.135 0.65821-15.772 6.1808-27.084 19.81-42.252 26.912-12.238 2.7398-26.438 2.6807-37.271-4.3711-2.7298-1.1312-3.8378-5.3304 0.36133-5.2559 13.942-4.7264 29.599-11.577 34.717-26.662 3.1834-6.74 8.6755-14.012 17.154-13.26 15.014-1.6954 29.782-4.8188 44.928-4.1868 13.247-0.7537 28.243 0.9805 39.762-6.873 6.0206-5.2454 6.0945-14.736 6.8516-21.25 3.018-0.53088 4.9098-1.339 4.998 2.6309 3.0283 12.32 15.022 21.935 27.969 20.061 16.742-1.2004 29.148-14.125 44.843-18.614 11.455-3.4693 23.237-9.7319 35.433-6.8318 7.7442 6.1362 17.113 9.6748 26.826 11.35 3.553 1.2612 9.7273 1.0128 11.865 2.6211-4.4501 8.0733-12.289 14.156-20.67 17.676-16.303 1.4796-32.78-0.4132-49.05 0.88916-6.2835 1.2584-13.468 0.91406-18.2 5.8101-2.6614-4.7588-12.195-4.1122-12.023 1.6055 9.5095 8.7966 18.085 21.908 14.115 35.482-4.9644 15.122-17.549 26.916-19.583 43.234-4.8403 14.554-6.0546 29.981-4.1898 45.176 0.91933 6.1506 0.4181 12.832 2.6442 18.586 5.3037 0.66451 2.3275-6.9727 3.0796-10.314-0.32545-29.599 5.1948-59.739 20.94-85.436 4.3736-6.8255 9.4583-14.907 5.9668-23.291-2.695-6.9964-5.0465-14.162-8.2363-20.953 16.342-4.309 33.637-2.4126 50.367-2.6032 13.857 2.1744 25.833-7.1051 35.063-16.252 3.68-4.2917 6.9873-9.3077 12.311-11.566 2.2805-4.8809-5.2665-5.6858-8.4297-6.5332-11.527-2.5285-24.201-3.8332-33.418-11.93-0.26004-1.6482 4.4612-3.77 5.8691-5.6582 9.8353-9.2582 21.947-19.606 22.848-34.08-0.14941-11.128-11.852-17.284-21.647-18.307-32.637-5.5464-65.813-6.8924-98.818-8.6896l-0.92782 0.37302-0.60734 0.24417zm45.559 8.4004c18.671 1.6011 38.582 0.72716 55.809 9.1621 7.8055 3.6016 9.166 13.504 5.3848 20.555-4.441 9.8067-11.374 18.616-18.77 26.035-14.718-1.8826-28.291 5.8305-42.141 9.5039-14.361 4.77-27.84 13.38-43.131 14.727-13.114-1.4259-20.195-16.14-20.055-28.09-1.0023-7.4558 2.3137-15.896 10.273-17.76 17.887-6.086 35.51 5.1632 53.632 3.9333 13.799-0.19967 29.007 1.357 41.436-5.7634 4.8622-3.0044 7.9915-10.748 2.2754-14.59-13.588-8.8172-30.147-11.399-45.232-16.74-4.651-1.4435-4.7087-1.2919 0.51669-0.97294zm-169.24 27.555c-11.655 11.913-25.496 23.042-32.047 38.799-4.6916 10.657 7.416 20.956 17.656 18.652 17.983-3.7045 30.781-18.791 41.137-32.797 8.8447-10.671 22.888-21.594 37.498-16.27 13.09 5.9769 23.068 21.391 19.785 35.947-3.8564 13.196-19.376 15.577-31.137 15.016-18.28 0.96483-36.679 2.5286-54.634 6.0211-5.9166 1.9859-10.773 6.1195-15.178 10.404-8.9592-0.0971-19.165 1.6806-27.175-3.9904-5.662-3.0892-11.667-9.8596-7.5556-16.549 9.1153-14.065 20.607-26.597 32.307-38.572 7.0511-6.8962 14.561-13.304 22.275-19.443-0.97721 0.92709-1.9544 1.8542-2.9316 2.7813zm130.55 124.44c-6.7547 27.714-11.168 56.977-6.5254 85.447 0.72135 7.013 3.5041 14.317 10.506 17.217 7.3441 3.9302 18.268 6.9069 18.697 17 1.4897 8.0379-4.5929 14.428-11.454 17.426-12.215 6.3242-26.234 10.266-38.894 16.05-3.9331-3.052-2.9335-9.7645-7.0547-13.082-4.0148-3.7953-8.7243-10.789-3.2285-15.473 5.0872-3.9494 8.7882-9.4808 8.6025-16.17 3.4911-33.49-6.5152-67.154-21.592-96.771-1.8571-7.5475-8.8152-4.2186-4.0509 1.8726 11.72 29.052 21.599 60.452 18.933 91.862 0.72593 9.1885-9.6945 12.59-12.75 20.224-4.1558 7.7254 1.6888 15.358 6.1719 21.318 3.7496 4.3249 2.4359 13.545 9.7656 13.979 9.1044-0.16873 16.925-5.7963 25.121-9.0859-4.1373 0.94824 3.2017 8.9216 1.127 6.6113-1.6055-4.2019-6.583-6.3773-8.8555-1.623-3.1697 2.0368-11.475 2.4841-9.5332 7.6836 10.565 6.5605 17.543 17.304 23.336 27.816 4.27 1.7712 5.5526-0.45182 6.8668-3.1757 0.21303-7.5134 0.082-1.5056 3.4281 1.3098 2.4288-3.2938 3.3118-4.4931 5.4762-8.1652 5.0209-12.056 3.6753-27.491 11.648-38.863-0.0333-7.3081-7.1162 1.4222-10.424 0.84453-4.6309 1.5005-3.4263 3.0793-8.3494 2.2821-2.9288 1.5329-9.9137 1.5193-7.5482 7.0812 0.26797 2.1521 3.1516 12.67 1.3017 6.7238-1.7854-3.5334-2.6849-11.684-8.2969-8.6055 12.521-5.9724 26.984-9.4632 37.207-19.262 6.3327-8.0817 4.8449-20.599-3.5806-26.666-1.8598-2.0855-7.7231-4.5581-1.939-4.4702 21.23-3.5285 41.753 6.4091 62.896 8.6289 11.753 0.92753 25.847-2.0173 32.811-12.352 5.3606-11.064 5.5459-26.013-2.3203-35.938-6.7708-5.5463-16.643-3.8794-24.793-3.9844-5.8183 1.0371-14.342 0.0566-17.652 6.0215-3.0471 7.1327 2.032 17.512-5.0879 22.719-14.651 6.3189-30.89 0.98659-46.24 3.0234-3.2356 0.8795-9.2145-0.68543-9.8418 3.5547 3.1679 2.7969 8.3616-0.22029 12.432 0.8086 4.9591-0.0369-2.9001 0.8038-4.3711 1.7852-3.2798 0.55266-5.715 5.036-8.8926 2.0117-7.2482-2.0389-14.329-7.6627-13.903-15.91-3.7989-26.629 0.31366-53.558 4.3208-80.079 7e-3 -1.9495-1.993-2.8688-3.4707-1.627zm96.502 63.75c6.1652 0.48818 15.761-1.1638 17.723 6.7226 2.5504 9.7777 0.84211 23.485-9.3926 28.096-14.446 5.103-29.624-0.46698-43.957-3.0898 8.2934-0.42864 19.431-4.8699 18.541-14.91 0.387-5.1716-3.1854-14.486 4.6094-15.633 4.1318-1.0619 8.2936-1.1854 12.477-1.1856zm-109.14 97.1c2.8692 2.541 4.666 5.9933 6.1074 9.4863-2.107-3.0578-4.3722-6.2886-6.1074-9.4863zm8.373 1.7266c0.947 1.3075 3.0723 7.9227 1.25 2.9883 5e-3 -0.32636-2.6895-5.8996-1.25-2.9883z" color="#000000" fill="#fff" filter="url(#a)"/>
 </g>
 <g transform="translate(-41.429 -108.08)" fill-rule="evenodd">
  <path d="m264.15 118.48 71.217 25.254c0.26139 22.303-48.992 13.131-63.135 12.121-64.975-19.386-55.963 47.005-20.709 52.023l84.854-28.285c14.372-11.54 22.973-25.003 21.213-41.92-1.566-12.982-20.54-13.133-93.439-19.193zm-104.55 0.50391c-56.841 42.881-63.182 39.48-96.469 91.42 9.2819 21.33 23.847 20.2 38.385 19.193 14.513-2.9411 31.968-7.8446 54.549-16.164 20.963 0.84316 39.542 0.0977 48.488-7.0703 18.322-41.842-15.088-54.433-33.842-52.527-21.825 9.4619-27.447 33.304-61.619 51.518-31.82-9.0914-10.317-23.387 50.508-86.369z" fill="#b99662"/>
  <path d="m330.32 124.03c18.368 6.3875 19.913 0.93262 21.479 17.557 1.6428 17.449-17.502 33.046-46.697 40.857-5.9454 1.5908-26.193-1.4369-53.574 25.43l84.854-28.285c14.372-11.54 22.973-25.003 21.213-41.92-1.566-12.982-9.1747-11.366-27.273-13.639zm-138.53 32.658c25.512 34.254 10.417 48.898-19.219 56.969 13.89-0.28135 25.488-2.0907 31.988-7.2988 18.322-41.842-0.8015-36.933-12.77-49.67zm-19.219 56.969c-5.227 0.10588-10.768 2e-3 -16.5-0.22851-5.9614 2.1964-12.719 4.6488-19.777 6.9707 13.161-1.8022 25.655-3.8494 36.277-6.7422zm-36.277 6.7422c-18.401 2.5197-38.1 4.5642-55.842 7.7637 14.099 4.1439 36.166-1.2907 55.842-7.7637z" fill="#74562b"/>
  <path d="m162.63 262.42c13.611 38.343 42.88 73.697 44.826 135.99 2.3361 11.675 4.1728 22.206 9.3938 28.069 7.4894 8.4105 12.95 3.2748 31.414-4.2195 22.606-9.1759 31.392-15.76 32.151-22.502s-6.257-13.64-15.758-24.96c-8.6632-43.77 1.3139-66.51 22.981-114.15 6.1495-13.52-5.5695-22.757-10.859-33.335 55.455-5.4887 71.526-2.2743 80.471-9.3649 6.2218-4.9317 5.2092-7.5661 20.039-19.93-64.294-19.072-55.23-21.002-125.26 11.617-17.965-2.5617-20.679-16.088-29.294-25.506l-10.859 2.0203-3.7881 23.739c-30.503 4.3096-89.853 3.1738-97.227 15.405-25.832 42.847-39.341 29.007-44.699 39.648 37.395 35.914 66.226-12.46 104.55-24.244z" fill="#846c5b"/>
  <path d="m270.97 374.8c22.185-5.551 54.369 4.755 86.621 4.7982 18.917-12.165 15.245-26.266 11.112-40.406-30.575-7.7095-29.729-3.2407-39.143 0.25254-0.63155 9.8596 0.85119 15.466-5.0508 25.506-17.03 3.6276-35.555 1.7574-53.791 1.7678z" fill="#90411e"/>
  <path d="m364.41 337.93c3.4091 22.486-0.097 27.119-10.102 33.082-14.956 8.9148-31.515-4.3025-82.58-1.2617l-0.75781 5.0508c23.7-3.5307 54.369 4.7556 86.621 4.7988 18.917-12.165 15.244-26.266 11.111-40.406l-4.293-1.2637zm-19.979 2.9219c-1.7994 0.0857-4.2664 0.69536-7.8008 2.1289-3.2521 6.086 3.6003 6.8445 11.602 7.6348 11.293-2.389 15.337-2.7753 14.576-5.834-15.312 5.16-10.579-4.3012-18.377-3.9297z" fill="#632408"/>
  <path d="m340.29 195.34c-12.906 0.39369-35.461 17.315-65.758 30.021l2.248 1.9629c55.455-5.4887 71.525-2.2747 80.471-9.3652 6.2218-4.9317 3.4241-5.781 18.254-18.145-9.4685 1.3568-16.401 5.9278-29.051-2.8613-1.7159-1.1923-3.7741-1.6862-6.1641-1.6133zm-66.035 29.963c9.4361 38.828 0.37305 16.357-19.045 47.594-10.969 48.189-11.31 62.722-2.7988 97.742 58.068 37.246-33.247 52.007-35.559 55.85-5.4257 9.0178 10.614 4.0156 27.805-2.791-7.15 2.9956-15.08 6.0538-19.166 8.3418 11.336 8.7733 21.876 22.428 26.031 33.686l-3.7051-13.389 8.793 10.182-1.7422-13.656 5.2227 11.791-1.1152-12.674 2.6328 14.914 1.7402-10.889 1.5606 7.0586c5.3077-29.011 6.7767-33.345 12.055-51.875-0.84549 0.54493-1.8515 1.1567-2.9492 1.8027 4.0906-3.2076 6.0621-6.2016 6.4024-9.2246 0.75869-6.7415-6.2566-13.639-15.758-24.959-8.6632-43.77 1.3134-66.512 22.98-114.15 6.1495-13.52-8.0951-24.778-13.385-35.355zm-99.379 5.3106c-36.059 25.018-45.698 0.1092-62.932 12.482-37.586 26.985-40.423 11.216-45.781 21.857 37.395 35.914 64.976-11.033 103.3-22.816l5.4121-11.523z" fill="#463122"/>
 </g>
 <g transform="translate(-41.429 -108.08)">
  <path d="m177.03 228.62c-2.9252 6.7954-4.9321 13.879-7.4256 20.857-3.1113 8.7071-4.3955 18.838-0.5174 27.732 4.5265 10.382 10.812 19.778 17.455 28.884 16.393 24.88 18.394 43.57 20.624 85.45-3.0213-22.565-8.3755-47.823-17.497-66.819-8.5301-17.351-26.579-35.463-28.74-52.819-0.76979-7.2435 0.24877-14.969 3.2591-21.592 5.2994-11.658 1.3681-16.305 12.843-21.694z" color="#000000"/>
  <path d="m285.06 239.9c2.8512 8.1174 8.2121 16.427 3.5788 24.478-4.4618 7.753-9.0077 15.493-12.74 23.619-12.028 26.184-13.854 52.899-13.407 80.195-5.383-45.28-1.4162-44.347 3.5094-66.523 3.2842-14.786 15.819-26.649 18.719-39.516 3.2248-14.307-4.9436-27.061-14.746-35.669 8.1815-7.3197 13.046 7.6104 15.086 13.417z" color="#000000"/>
  <path d="m254.08 276.57c-4.7241 31.773-8.2728 55.108-3.7957 84.38 0.98648 6.4497 6.2454 10.432 11.944 12.656 7.051 2.7516 13.789 6.6535 18.762 12.824 5.0146 6.223 3.516 14.443-0.17059 19.81-4.2544 6.1936-26.752 14.62-35.365 18.349-12.093 5.2363-27.74 14.87-29.842 5.9307-1.2654-5.3808-4.123-10.18-7.4558-14.425-12.013-15.3 8.4024-23.232 9.6079-29.994 5.8667-32.904-9.2432-77.586-20.15-102.36 14.648 25.315 29.646 70.822 22.672 105.62-1.113 5.5531-8.2777 8.1874-9.8526 13.351-1.9807 6.494 3.8508 11.025 7.2882 15.615 3.4011 4.5416 2.5656 15.597 10.718 10.947 10.607-6.0509 44.112-13.646 47.881-25.879 2.3304-7.5654 0.84714-16.055-5.8636-20.511-7.0338-4.6704-18.564-7.2479-20.647-14.745-7.4999-26.985-2.2844-63.021 4.2698-91.559z" color="#000000"/>
  <path d="m67.969 272.7c5.9682 6.3911 15.342 6.9794 23.455 6.373 6.7159-0.50194 14.11 2.4053 20.125-0.76562 19.505-10.283 26.239-22.689 50.89-33.756-18.197 1.4035-38.818 24.034-50.598 28.883-6.6312 2.7296-19.233 2.7928-28.974 0.83398-6.2394-1.3446-18.099-6.8212-13.941-12.23 0.65534-0.85242 8.8275-3.2218 13.46-5.3738 8.3891-3.8971 17.406-8.5701 21.498-17.619 3.2138-7.107 8.4628-17.333 16.668-18.139 8.1997-0.80475 16.38-1.8258 24.51-3.209 9.4641-1.6103 17.668-1.0752 26.225-1.4726 10.776-0.24522 23.692 0.10929 33.961-4.3672 15.503-6.7582 10.049-50.374-13.689-58.367-14.314-4.8198-33.283-2.0988-44.604 13.994-9.3543 16.052-43.606 47.414-48.604 30.787-6.5438-21.771 31.862-43.473 64.291-82.02-32.704 18.237-61.576 41.669-90.635 76.615-6.8134 8.1938-15.158 20.938-6.1992 30.137 9.0727 9.3161 21.951 11.471 33.047 9.1524 2.1169-0.44231 3.3776-2.7018 5.0664-4.0527-9.082 1.4312-19.181 1.0933-26.164-3.2637-13.897-8.6712-13.188-16.258-3.9805-27.363 22.54-28.649 35.554-41.499 79.572-73.276-37.695 35.632-71.337 63.38-60.076 76.757 13.884 16.492 40.548-8.2279 49.59-21.068 14.94-21.217 36.836-33.305 54.33-15.66 18.777 18.939 16.753 48.97-20.197 47.848-17.901 0.50262-35.226 2.8356-51.621 4.9414-4.8441 0.62897-9.2359 2.8576-12.961 5.7891-5.4053 4.2538-10.595 9.3246-13.232 15.84-4.8266 11.925-10.784 14.961-22.293 17.742-3.5782 0.8646-5.6601 4.0344-9.3125 6.1142-4.7481 2.7038-1.818 7.8291 0.39258 10.196z" color="#000000"/>
  <path d="m124.95 241.95c-7.1004-1.4084-14.642 2.2785-15.376 2.8617-5.4928 4.3671-11.483 8.0534-17.644 11.341-4.045 2.1584-8.5837 3.326-13.037 4.3726 10.256-5.0059 12.203-4.9963 17.45-8.296 8.5553-5.5212 16.553-13.059 27.002-14.503 6.9497-0.96051 13.633 2.541 20.611 1.8528 5.3849 0.0376 10.759-0.36586 16.14-0.48693 1.9785 6.5814-28.131 4.1738-35.146 2.8576z" color="#000000"/>
  <path d="m253.69 405.72c14.683-34.565 20.255-16.698 19.592-6.1573-8.0186-16.429-12.3-1.0748-19.592 6.1573z" color="#000000"/>
  <path d="m236.48 413.07c-17.616-11.715-17.973-6.6571-18.167 1.128-14.199-20.74 14.013-11.738 18.167-1.128z" color="#000000"/>
  <path d="m329.81 338.97c-3.2861 6.6386 2.0605 20.406-6.7127 24.67-13.515 6.5697-30.934 0.1399-54.719 4.0195 17.329-3.1414 45.032 6.8752 58.375-3.6035 7.4215-5.8282-1.2121-20.058 5.7164-24.341 6.2381-3.8562 22.781-2.795 29.072-1.7881 10.752 1.7211 10.563 24.023 2.7473 33.386s-27.457 6.7733-39.487 3.8631c-16.328-3.95-43.803-8.7058-55.26 0.70507 14.776-3.5539 29.309-1.7684 42.834 1.6856 21.211 5.4167 38.01 10.373 54.547-1.3594 9.4002-6.6691 9.4817-31.414 0.91543-38.662-5.4546-4.6153-35.759-3.1602-38.029 1.4255z" color="#000000"/>
  <path d="m360.36 342.74c18.43 7.9237-41.697 13.316-23.213-0.12189-9.3934 11.747 31.95 4.6306 23.213 0.12189z" color="#000000"/>
  <path d="m276.95 251.79c-15.399-6.3682-13.515 10.879-21.587 20.526 8.4216-2.593 9.3924 2.1513 15.295-3.6236 3.5215-3.445-2.2067-11.475 6.2915-16.903z" color="#000000"/>
  <path d="m173.64 267.68c7.6665 1.1937 1.1033 5.7022 5.2077 13.256 6.2451 11.493 7.4191-1.8765 14.405-1.6778-6.7451-5.0103-9.8516-16.064-19.613-11.578z" color="#000000"/>
  <path d="m186.67 275.18c-4.1961-4.1984-7.6744-3.1033-7.8398 1.0266-2.1289-6.7671 5.8814-7.8676 7.8398-1.0266z" color="#000000" fill="#fff"/>
  <path d="m272.66 154.31c-11.164-1.3265-26.988-14.794-45.882 3.1956-5.5969 5.3289-6.4195 15.747-5.784 22.718 3.2561 35.721 28.716 36.161 51.029 22.27 10.314-6.421 22.164-10.589 32.99-14.041 7.5003-2.3917 15.421-4.8257 23.379-3.4863 3.8007 0.63967 6.2719 3.8475 9.4863 5.625 6.6756 3.6914 14.347 5.2318 21.779 6.8047 4.5271 0.95802 13.317 1.9611 15.331 2.7497-1.6593 0.55671-3.45-0.31826-4.9601 2.2637-2.2216 3.7983-4.7052 7.4769-8.2422 10.057-5.7334 4.182-10.379 8.9903-17.254 8.9844-12.073-0.0104-24.155 0.4603-36.219-0.041-7.61-0.31624-14.976 1.4759-22.389 2.7266-1.8741 1.4107-3.7502 2.8201-5.625 4.2305 6.0148-1.1127 11.946-2.9567 18.104-3.0312 13.002-0.15736 26.023-0.5702 39.012 0.0684 11.404 0.56069 19.112-7.0167 25.812-12.051 4.997-3.7542 10.377-13.252 14.715-14.533 5.0785-1.4999-3.9298-3.6552-7.4375-4.2559-7.868-1.4488-15.692-3.29-23.264-5.9414-3.6086-1.2636-6.0834-4.1012-9.2774-5.9473-4.6828-2.7066-10.247-2.2996-15.336-1.4805-7.854 1.2641-15.235 4.6072-22.893 6.7598-15.982 4.4928-31.976 13.91-47.239 16.969-12.965 2.598-23.116-10.831-24.989-20.903-1.605-8.6285-2.8286-20.589 4.8438-25.654 16.736-11.049 37.268 0.12216 53.007 0.70899 11.214 0.41811 40.489 1.7422 48.394-6.1736 12.245-12.263-8.0716-15.469-63.351-32.888 55.37 3.9686 120.9-0.55073 64.576 60.921 11.806-9.4818 47.101-38.014 21.83-52.74-13.649-7.9529-109.65-11.97-109.65-11.97 84.209 19.176 124.87 49.892 25.499 38.084z" color="#000000"/>
  <path d="m327.41 196.94c16.264-5.3889 22.011 2.9486 33.689 5.4328-11.145 6.7271-17.122-3.1971-22.772-3.1899-14.947 0.0191-16.894 4.5497-25.455 9.1697-7.2144 3.8931-14.743 8.407-28.331 12.882 23.166-10.54 27.846-19.317 42.869-24.295z" color="#000000"/>
  <path d="m223.21 181.28c0.3041 0.064-0.51827-1.7366-0.49545-1.6026-2.4367 7.3362-8.5345 4.7826-12.957 4.3421-0.34602-0.0343 0.71578 2.5584 0.65167 2.4427 3.1832 1.9099 11.641 4.1497 12.801-5.1822z" color="#000000"/>
  <path d="m269.93 421.46c-5.8068 7.4006-2.2125 17.704-5.5194 37.57 1.8861-14.35-1.8669-30.169 2.0136-37.516z" color="#000000"/>
  <path d="m256.51 424.7c-1.0873 12.861 5.0154 27.21 4.9003 39.158-0.70428-9.9462-6.8736-30.621-7.8758-37.881z" color="#000000"/>
  <path d="m241.34 430.9c7.6109 8.807 6.0254 13.435 15.247 31.863-10.843-19.439-8.3364-22.655-17.544-30.109z" color="#000000"/>
  <path d="m231.85 436.18c6.9084 9.3441 12.683 11.08 20.086 29.849-6.6281-14.004-14.614-22.148-23.228-27.95z" color="#000000"/>
  <path d="m276.71 417.46c-5.6805 7.4638-6.7294 18.147-10.857 37.888 3.3147-20.175 1.9459-27.217 6.341-35.434z" color="#000000"/>
  <path d="m261.98 423.23c0.17535 15.955 1.6135 22.546 1.4985 34.493-0.70428-9.9462-3.2174-26.558-4.2196-33.817z" color="#000000"/>
  <path d="m247.98 428.11c6.6007 13.605 3.3106 13.182 11.774 31.926-11.79-21.775-2.6542-12.301-14.261-31.119z" color="#000000"/>
  <path d="m236.59 433.97c5.5194 11.554 13.819 18.277 18.508 32.69-4.7972-11.983-16.95-27.009-20.828-31.107z" color="#000000"/>
  <path d="m263.34 260.63c1.9271-2.638 5.9624-4.1281 6.9183-0.12597 0.35562-6.4192-5.5761-4.4762-6.9183 0.12597z" fill="#fff" fill-rule="evenodd"/>
 </g>
</svg>
